<svg width="78" height="88" viewBox="0 0 78 88" fill="none" xmlns="http://www.w3.org/2000/svg">
<path d="M77.9983 44.0101C77.9983 50.395 77.9974 56.78 78.0001 63.165C78.0001 64.0687 77.8349 64.9315 77.4252 65.7426C76.967 66.6481 76.3044 67.3701 75.43 67.8851C74.2308 68.5926 73.0197 69.2793 71.8131 69.9732C61.8065 75.7215 51.799 81.4689 41.7943 87.2208C40.9063 87.7312 39.9616 88.0119 38.9349 87.9982C38.066 87.9864 37.2382 87.7902 36.4816 87.3616C34.6992 86.3507 32.9249 85.3262 31.1479 84.3053C21.7036 78.8785 12.2592 73.449 2.81392 68.0241C1.3728 67.1967 0.448264 65.9987 0.106923 64.3702C0.0220444 63.9669 0.00196553 63.5573 0.00287821 63.1459C0.00470356 58.8145 0.00379088 54.4821 0.00379088 50.1507C0.00379088 41.7122 0.00561623 33.2737 0.00105286 24.8352C0.00105286 24.0123 0.131565 23.2212 0.474731 22.4692C0.912816 21.5101 1.55808 20.7208 2.46984 20.1786C3.64902 19.4765 4.84462 18.8017 6.03475 18.1178C16.0578 12.3586 26.0817 6.6012 36.1029 0.83838C37.0776 0.276175 38.108 -0.0444356 39.2415 0.0055179C40.1834 0.0472972 41.0441 0.341569 41.8582 0.811132C45.518 2.92281 49.1833 5.0263 52.8468 7.13344C60.2751 11.4058 67.7015 15.6818 75.1334 19.947C76.4458 20.6999 77.3594 21.7517 77.7884 23.2049C77.9472 23.7434 77.9992 24.2966 77.9983 24.856C77.9974 31.241 77.9983 37.626 77.9983 44.011V44.0101ZM33.5647 60.73C34.262 60.73 34.9593 60.7318 35.6566 60.73C35.9769 60.7291 36.1467 60.6083 36.2589 60.314C36.2799 60.2595 36.2972 60.2032 36.3155 60.1478C38.516 53.5812 40.7155 47.0145 42.9169 40.4479C44.2521 36.4662 45.5883 32.4853 46.9317 28.5072C47.0121 28.2683 46.9035 27.9986 46.6899 27.8832C46.5931 27.8306 46.4882 27.8124 46.3778 27.8124C44.9832 27.8133 43.5877 27.8124 42.1931 27.8133C41.9157 27.8133 41.7304 27.9495 41.6254 28.2002C41.599 28.2629 41.5807 28.3292 41.5588 28.3946C38.0295 38.9139 34.5011 49.4323 30.9718 59.9516C30.9535 60.007 30.9316 60.0624 30.917 60.1187C30.8604 60.3494 30.9517 60.5447 31.1598 60.6591C31.2867 60.729 31.4217 60.7318 31.5605 60.7318C32.2285 60.7318 32.8966 60.7318 33.5647 60.7318V60.73ZM58.9809 47.5177C58.8869 47.6176 58.7838 47.6539 58.6907 47.7057C56.2794 49.0381 53.869 50.3741 51.4522 51.6974C51.1364 51.87 51.0041 52.0944 51.0068 52.4477C51.0178 53.6402 51.0105 54.8327 51.0114 56.0252C51.0114 56.0934 51.0096 56.1633 51.0196 56.2296C51.0808 56.621 51.4221 56.8018 51.7854 56.6383C51.8392 56.6138 51.8894 56.5838 51.9414 56.5566C55.7719 54.4876 59.6006 52.415 63.4357 50.3532C63.7642 50.177 63.902 49.9454 63.8993 49.5821C63.8902 48.2234 63.8883 46.8647 63.9002 45.5059C63.903 45.149 63.7642 44.9319 63.4494 44.7612C59.6115 42.6849 55.7792 40.5996 51.9451 38.5161C51.8848 38.4834 51.8246 38.448 51.7616 38.4234C51.3984 38.2836 51.0835 38.4616 51.0205 38.8439C51.0059 38.9302 51.0105 39.0192 51.0105 39.1073C51.0105 40.2708 51.0205 41.4343 51.0041 42.5968C50.9986 42.9874 51.1401 43.2235 51.4887 43.4115C53.8882 44.7049 56.2785 46.0146 58.6715 47.3206C58.7728 47.376 58.886 47.4151 58.9791 47.5168L58.9809 47.5177ZM18.8843 47.5023C18.9738 47.4487 19.0468 47.4024 19.1225 47.3606C21.0501 46.3088 22.9786 45.2571 24.9071 44.2053C25.441 43.9147 25.974 43.6231 26.5088 43.3334C26.7014 43.229 26.8438 43.0891 26.8438 42.8557C26.8447 41.526 26.852 40.1972 26.8383 38.8676C26.8346 38.4852 26.5261 38.2963 26.1583 38.4062C26.0935 38.4252 26.0315 38.4589 25.9712 38.4915C22.1115 40.5878 18.2527 42.6867 14.3894 44.7784C14.0937 44.9383 13.9705 45.1445 13.9732 45.4796C13.9851 46.8383 13.9878 48.1971 13.9723 49.5558C13.9677 49.9482 14.1138 50.1816 14.4606 50.3687C18.2783 52.4204 22.0896 54.4839 25.9019 56.5439C25.9621 56.5765 26.0223 56.6111 26.0844 56.6383C26.4659 56.8081 26.8091 56.6092 26.8428 56.1969C26.8483 56.1288 26.8465 56.0598 26.8465 55.9916C26.8465 54.8091 26.8465 53.6257 26.8465 52.4431C26.8465 52.365 26.8438 52.2869 26.8392 52.2088C26.8292 52.0299 26.747 51.8927 26.5909 51.8019C26.5061 51.7528 26.4212 51.7047 26.3345 51.6575C23.9487 50.3396 21.5621 49.0227 19.1764 47.7039C19.0833 47.653 18.9783 47.6185 18.8825 47.5014L18.8843 47.5023Z" fill="#0A192F"/>
<path d="M33.5646 60.7299C32.8965 60.7299 32.2284 60.7299 31.5603 60.7299C31.4225 60.7299 31.2865 60.7272 31.1597 60.6572C30.9516 60.5419 30.8603 60.3466 30.9169 60.1168C30.9306 60.0605 30.9525 60.0051 30.9716 59.9497C34.501 49.4304 38.0294 38.912 41.5587 28.3927C41.5806 28.3282 41.5988 28.2619 41.6253 28.1983C41.7303 27.9476 41.9155 27.8114 42.193 27.8114C43.5876 27.8114 44.983 27.8114 46.3776 27.8105C46.488 27.8105 46.593 27.8287 46.6897 27.8813C46.9033 27.9967 47.0119 28.2673 46.9316 28.5053C45.5881 32.4843 44.252 36.4652 42.9167 40.446C40.7154 47.0126 38.5158 53.5793 36.3154 60.1459C36.2971 60.2013 36.2798 60.2576 36.2588 60.3121C36.1465 60.6064 35.9758 60.7262 35.6564 60.7281C34.9591 60.7308 34.2618 60.7281 33.5646 60.7281V60.7299Z" fill="#62FAD7"/>
<path d="M58.9808 47.5176C58.8868 47.415 58.7745 47.376 58.6732 47.3215C56.2802 46.0154 53.8899 44.7057 51.4904 43.4124C51.1418 43.2244 51.0003 42.9882 51.0058 42.5977C51.0222 41.4342 51.0113 40.2716 51.0122 39.1082C51.0122 39.0201 51.0076 38.9311 51.0222 38.8448C51.0852 38.4624 51.4001 38.2844 51.7633 38.4243C51.8272 38.4488 51.8865 38.4842 51.9468 38.5169C55.7809 40.5995 59.6132 42.6858 63.451 44.762C63.7659 44.9328 63.9046 45.1489 63.9019 45.5068C63.89 46.8655 63.8919 48.2243 63.901 49.583C63.9037 49.9463 63.7659 50.177 63.4374 50.3541C59.6032 52.4158 55.7736 54.4875 51.9431 56.5574C51.8911 56.5856 51.8409 56.6155 51.787 56.6392C51.4238 56.8026 51.0825 56.621 51.0213 56.2304C51.0104 56.1632 51.0131 56.0942 51.0131 56.0261C51.0131 54.8336 51.0195 53.641 51.0085 52.4485C51.0049 52.0952 51.1381 51.8709 51.4539 51.6983C53.8707 50.375 56.2811 49.0399 58.6924 47.7066C58.7854 47.6548 58.8886 47.6185 58.9826 47.5185L58.9808 47.5176Z" fill="#62FAD7"/>
<path d="M18.8842 47.5022C18.98 47.6194 19.0859 47.6539 19.1781 47.7048C21.5638 49.0235 23.9504 50.3405 26.3362 51.6584C26.422 51.7056 26.5078 51.7537 26.5926 51.8028C26.7487 51.8936 26.8308 52.0307 26.8409 52.2097C26.8454 52.2878 26.8482 52.3659 26.8482 52.444C26.8482 53.6265 26.8482 54.81 26.8482 55.9925C26.8482 56.0606 26.85 56.1297 26.8445 56.1978C26.8108 56.6101 26.4685 56.809 26.0861 56.6392C26.0231 56.611 25.9638 56.5765 25.9036 56.5447C22.0904 54.4848 18.28 52.4213 14.4623 50.3696C14.1154 50.1834 13.9694 49.949 13.974 49.5567C13.9904 48.1979 13.9877 46.8392 13.9749 45.4805C13.9722 45.1453 14.0954 44.9391 14.3911 44.7793C18.2544 42.6885 22.1132 40.5896 25.9729 38.4924C26.0332 38.4597 26.0943 38.427 26.16 38.407C26.5278 38.2971 26.8363 38.4861 26.84 38.8684C26.8537 40.1972 26.8464 41.5269 26.8454 42.8565C26.8454 43.09 26.7031 43.2298 26.5105 43.3343C25.9757 43.624 25.4427 43.9156 24.9087 44.2062C22.9803 45.2579 21.0518 46.3088 19.1242 47.3614C19.0485 47.4032 18.9754 47.4495 18.886 47.5031L18.8842 47.5022Z" fill="#62FAD7"/>
</svg>
